<?xml version="1.0" encoding="UTF-8"?>
<svg width="1500px" height="1000px" viewBox="0 0 1500 1000" style="background-color:#2E2F39" version="1.1" xmlns="http://www.w3.org/2000/svg" xmlns:xlink="http://www.w3.org/1999/xlink">
     <rect width="300" height="200" style="fill:rgb(0,0,255, 0);stroke-width:3;stroke:rgb(0,0,0)" />
<text x="200" y="200" style="font: 80px Verdana, Helvetica, Arial, sans-serif;font-weight:bold; fill:white">The MuNCHER</text>

    <g id="Custom-Preset" stroke="none" stroke-width="1" fill="none" fill-rule="evenodd">
        
        <path class="st5" d="M19.6536,4.12833c-8.57704,0-15.52845,6.9507-15.52845,15.52586c0,8.57769,6.95141,15.5291,15.52845,15.5291
        c8.57516,0,15.52651-6.95141,15.52651-15.5291C35.18011,11.07903,28.22877,4.12833,19.6536,4.12833z M20.4472,5.76283
        c0.12636-0.03157,0.23124-0.08463,0.32033-0.07078c0.67921,0.11439,1.36852,0.18705,1.99655,0.50168
        c0.23887,0.12008,0.45619,0.28623,0.695,0.40437c0.19339,0.09478,0.41259,0.13652,0.6085,0.22936
        c0.2742,0.1283,0.33171,0.33365,0.13011,0.59077c0.11879,0.10235,0.22748,0.19901,0.33553,0.29192
        c-0.15166,0.30202-0.09478,0.53707,0.15418,0.77587c0.13645,0.1327,0.25084,0.28688,0.40307,0.46247
        c-0.46182,0.19966-0.79988,0.03791-1.12402-0.12636c-0.23693-0.12066-0.46752-0.27038-0.66718-0.44856
        c-0.182-0.16175-0.31405-0.37661-0.47198-0.56489c-0.05118-0.06315-0.11057-0.12823-0.18006-0.16802
        c-0.30965-0.16938-0.61419-0.36141-0.94209-0.48524c-0.25466-0.0986-0.54082-0.1523-0.81314-0.15605
        c-0.37532-0.00194-0.5535-0.14473-0.56929-0.52762c-0.00382-0.10863-0.06321-0.2148-0.10805-0.36329
        c0.14402-0.02717,0.2445-0.0493,0.3772-0.07518C20.54451,5.94483,20.50466,5.86965,20.4472,5.76283z M23.58925,20.16978
        c-0.40689,0.25271-0.55473-0.31968-0.89848-0.25466c0.27044-0.13011,0.23505-0.67352,0.71085-0.49217
        c0.20975,0.07958,0.46816,0.04995,0.55913,0.3519c-0.17753,0.04555-0.34368,0.08657-0.54082,0.13464
        C23.48308,20.00803,23.53051,20.07881,23.58925,20.16978z M22.51512,8.96809c0.04361,0.06321-0.05558,0.22684-0.10863,0.41511
        c-0.4461-0.12506-0.91614-0.25906-1.43742-0.40502c0.14408-0.16362,0.28435-0.32408,0.4758-0.54147
        c-0.20535-0.02148-0.36775-0.03539-0.59077-0.05687c-0.21292-0.51746-0.78409-0.18575-1.20489-0.31968
        c-0.10999-0.03604-0.24075-0.12131-0.28435-0.21732c-0.03157-0.06955,0.04361-0.26287,0.11245-0.28875
        c0.17191-0.05875,0.37597-0.10048,0.55163-0.06696c0.33359,0.06315,0.65773,0.16996,0.97929,0.28429
        c0.43032,0.14978,0.86121,0.30642,1.2738,0.49728c0.10675,0.04801,0.15036,0.23123,0.25271,0.40689c-0.20535,0-0.31211,0-0.44034,0
        C22.26622,8.78674,22.43237,8.84742,22.51512,8.96809z M19.84123,6.0257c0.24896-0.05564,0.34375,0.07706,0.32602,0.31968
        c-0.04354,0.57116-0.23311,0.73485-0.79988,0.65586c0.04108-0.18575,0.07712-0.3475,0.11814-0.52316
        c-0.11432-0.05752-0.2192-0.10675-0.32537-0.158c-0.00252-0.02776-0.00634-0.05558-0.00821-0.08527
        C19.38128,6.16344,19.60812,6.07688,19.84123,6.0257z M30.37128,25.44114c-0.22871,0.55285-0.50925,1.08416-0.76448,1.62693
        c-0.13962,0.29697-0.27419,0.59459-0.39868,0.89718c-0.25466,0.62176-0.86496,0.8726-1.32685,1.27755
        c-0.103,0.08851-0.22179,0.1776-0.28241,0.29192c-0.42715,0.82582-1.18535,1.33947-1.83105,1.95553
        c-0.07078,0.07136-0.19714,0.07706-0.28241,0.1358c-0.17191,0.12261-0.33553,0.25718-0.49792,0.39557
        c-0.06315,0.05118-0.10235,0.13768-0.17184,0.17754c-0.47198,0.25841-0.95975,0.48777-1.41594,0.7683
        c-0.3279,0.20154-0.616,0.47004-0.91989,0.70891c-0.14408,0.11432-0.27866,0.24068-0.43096,0.34562
        c-0.16175,0.11497-0.41064,0.12442-0.42016,0.41446c-0.00252,0.04548-0.19203,0.11879-0.2982,0.12254
        c-0.17378,0.00822-0.35196-0.02776-0.62616-0.05493c0.22302-0.29445,0.39868-0.53519,0.58443-0.7683
        c0.13839-0.16997,0.32162-0.28436,0.34756-0.5592c0.01766-0.1952,0.20341-0.38916,0.34368-0.55855
        c0.77018-0.92242,1.24598-1.97695,1.45761-3.15596c0.03351-0.19397,0.01391-0.33424-0.18763-0.40502
        c-0.0196-0.00757-0.03604-0.02523-0.05558-0.03157c-0.71085-0.24515-1.19862-0.67164-1.39828-1.44564
        c-0.07266-0.28241-0.39298-0.51177-0.61982-0.7443c-0.30642-0.31586-0.3222-0.49599-0.0537-0.83397
        c0.04736-0.05875,0.08909-0.19086,0.05752-0.24075c-0.26475-0.37467-0.0196-0.68109,0.13011-0.99132
        c0.06761-0.14027,0.18012-0.26662,0.30266-0.36523c0.49346-0.41064,0.3968-1.11198,0.12636-1.53026
        c-0.14848-0.22554-0.31651-0.23758-0.44287,0.00375c-0.12642,0.23635-0.2641,0.24262-0.48589,0.13399
        c-0.50737-0.25084-1.02483-0.46189-1.33067-0.99514c-0.17559-0.30642-0.49404-0.44416-0.85927-0.45238
        c-0.42837-0.00822-0.71648-0.28623-0.99954-0.55098c-0.17314-0.16362-0.33741-0.20341-0.53707-0.08527
        c-0.22871,0.13645-0.43472,0.08087-0.64952-0.0493c-0.51559-0.31211-1.03875-0.61412-1.56443-0.9098
        c-0.17941-0.10113-0.22302-0.23382-0.24262-0.43284c-0.02019-0.22936-0.08463-0.47573-0.20341-0.67164
        c-0.38671-0.63942-0.81379-1.25607-1.21311-1.8898c-0.08844-0.14214-0.13587-0.31211-0.20283-0.47004
        c-0.03979,0.01579-0.08275,0.03345-0.12254,0.04924c0.27607,0.7247,0.55285,1.44751,0.82957,2.17286
        c-0.024,0.02148-0.04742,0.04296-0.0733,0.06696c-0.11626-0.10863-0.26028-0.1996-0.3475-0.32977
        c-0.17566-0.27297-0.34375-0.5535-0.4701-0.8517c-0.09854-0.23505-0.11245-0.5055-0.19332-0.75064
        c-0.14661-0.44604-0.30836-0.86684-0.60021-1.26746c-0.42714-0.59264-0.57498-1.31165-0.28054-2.04585
        c0.14214-0.35384,0.29445-0.70134,0.43847-1.05511c0.07835-0.18957,0.14784-0.38671,0.46758-0.29949
        c-0.10999-0.18575-0.23635-0.36141-0.32731-0.55732c-0.05939-0.13011-0.12066-0.2982-0.08909-0.42837
        c0.15353-0.64194-0.09918-1.22443-0.3279-1.77793c-0.08721-0.20917-0.31593-0.59012-0.73485-0.5055
        c-0.31398-0.35759-0.47761,0.06192-0.71712,0.12895C10.07509,9.15953,9.67641,9.21705,9.2809,9.28466
        C9.22591,9.29411,9.15895,9.23666,9.09134,9.13805c0.36012-0.09666,0.71712-0.19145,1.0962-0.29192
        c-0.07136-0.07958-0.12189-0.13897-0.15605-0.17437c0.11626-0.20089,0.19591-0.40689,0.33618-0.55473
        c0.1162-0.12448,0.31334-0.27297,0.45807-0.25653c0.31586,0.03727,0.40495-0.0733,0.38729-0.35572
        c-0.00252-0.03604,0.02905-0.07266,0.06321-0.14596c0.33107,0.19526,0.53448,0.0733,0.70639-0.2388
        c0.1074-0.18575,0.79858-0.22114,0.98375-0.06761c0.2192,0.17753,0.43025,0.37338,0.60591,0.59452
        c0.11122,0.13652,0.19584,0.17566,0.36769,0.14408c0.60403-0.11439,1.09057,0.12636,1.54042,0.51365
        c0.13645,0.11814,0.35132,0.14408,0.53959,0.21545c0.40055-0.4208,0.86878,0.14978,1.31106-0.13457
        c0.01197,0.0196-0.00447-0.03539-0.03733-0.07518c-0.08527-0.10488-0.25142-0.19966-0.25905-0.30829
        c-0.03533-0.5011,0.08469-0.59394,0.59019-0.47392c0.20594,0.05182,0.44481,0.03164,0.55978,0.32414
        c0.06062,0.15987,0.30771,0.24075,0.45619,0.37344c0.06696,0.05939,0.13774,0.16802,0.13011,0.2489
        c-0.00822,0.09478-0.07706,0.23693-0.15411,0.26663c-0.45432,0.17378-0.67358,0.59271-0.96544,0.91996
        c-0.30836,0.34181-0.12131,0.83527,0.33359,0.96984c0.31211,0.09478,0.63185,0.18135,0.95406,0.23318
        c0.27801,0.04296,0.41828,0.16809,0.49346,0.44041c0.11245,0.40689,0.27801,0.49598,0.62364,0.38477
        c-0.03352-0.09666-0.06069-0.19339-0.10048-0.28623c-0.09291-0.21292-0.19966-0.40625,0.03539-0.62234
        c0.12254-0.11245,0.0733-0.27614-0.06509-0.41446c-0.13205-0.13399-0.27232-0.30583-0.30959-0.48149
        c-0.08087-0.3816,0.04671-0.52186,0.4265-0.48647c0.27795,0.02588,0.56482,0.07136,0.75627,0.33611
        c0.07518,0.10617,0.23065,0.22489,0.33359,0.21105c0.08909-0.01139,0.15418-0.20096,0.26287-0.35889
        c0.19714,0.13393,0.42268,0.29568,0.65521,0.44416c0.27102,0.17119,0.53959,0.35319,0.82388,0.49598
        c0.24896,0.12383,0.54276,0.1908,0.52128,0.54651c-0.01773,0.30266-0.22684,0.49346-0.62803,0.53894
        c-0.54528,0.06192-0.86309,0.36587-1.00523,0.89466c0.12066-0.12002,0.2388-0.2445,0.36141-0.36264
        c0.28241-0.27672,0.46435-0.2654,0.62609,0.08469c0.12636,0.27795,0.30202,0.44034,0.64576,0.39298
        c0.00188,0.02782,0.00188,0.05493,0.00375,0.08087c-0.14971,0.17754-0.30008,0.35759-0.48143,0.57052
        c-0.06761-0.13962-0.11497-0.2388-0.18388-0.37907c-0.24702,0.25084-0.67352,0.32602-0.55473,0.81948
        c0.01579,0.06315-0.06949,0.18575-0.14027,0.22742c-0.27102,0.158-0.3772,0.40883-0.46441,0.68743
        c-0.03345,0.1087-0.11814,0.19908-0.21292,0.34756c0.30014,0.48777-0.08152,0.81126-0.42456,1.14737
        c-0.05939,0.06062-0.13082,0.10992-0.19021,0.16932c-0.2148,0.20723-0.30771,0.42714-0.15981,0.73291
        c0.12254,0.2553,0.19144,0.53519,0.25899,0.81379c0.0297,0.12008-0.01009,0.25906-0.01766,0.38671
        c-0.03979,0.02019-0.079,0.03979-0.11879,0.05939c-0.19144-0.23505-0.44228-0.4461-0.55661-0.71272
        c-0.13457-0.31399-0.32984-0.44481-0.63438-0.47767c-0.14596-0.01637-0.29445-0.02588-0.44228-0.03157
        c-0.24514-0.01197-0.50549-0.03791-0.42462,0.3728c-0.31968-0.05305-0.5964-0.10488-0.87318-0.15036
        c-0.37655-0.06069-0.82705,0.20341-0.95528,0.56482c-0.06696,0.18827-0.12636,0.37972-0.19338,0.57117
        c-0.22929,0.66724,0.13399,1.16129,0.50549,1.63896c0.20089,0.25906,0.99067,0.158,1.1708-0.11814
        c0.03979-0.06315,0.07706-0.12823,0.11245-0.19145c0.27103-0.4549,0.35384-0.49029,0.94584-0.36516
        c-0.07706,0.22114-0.14972,0.43782-0.23253,0.64952c-0.30072,0.75815-0.24514,0.84096,0.55667,0.82517
        c0.616-0.01016,0.67352,0.04801,0.66343,0.6697c-0.00194,0.11626,0.0044,0.23253,0.00628,0.34944
        c0.00764,0.51552,0.43659,0.79418,0.89026,0.55538c0.21926-0.11251,0.40502-0.0733,0.6028,0.01514
        c0.19707,0.09097,0.31211,0.02588,0.45613-0.13587c0.24709-0.28241,0.53332-0.53325,0.81948-0.77652
        c0.07518-0.06315,0.25466-0.11245,0.31405-0.06884c0.33741,0.2445,0.75057,0.23059,1.08423,0.18387
        c0.73667-0.0986,1.35273,0.09479,1.94156,0.48524c0.30396,0.20218,0.62364,0.2982,0.99139,0.21732
        c0.19901-0.04548,0.34562,0.03791,0.43847,0.22554c0.04743,0.09478,0.09666,0.19144,0.16557,0.26857
        c0.26093,0.30008,0.36516,0.62803,0.18381,0.95975c0.58255-0.00951,1.11774-0.0537,1.64912-0.02213
        c0.25084,0.01643,0.49721,0.15793,0.73479,0.26915c0.05499,0.0253,0.09666,0.17184,0.07712,0.24262
        C30.61015,24.68481,30.52358,25.07527,30.37128,25.44114z M22.60421,19.36796c-0.18381,0.32414-0.70321,0.36587-0.91485,0.15042
        c-0.30959-0.31405-0.73421-0.34375-1.14931-0.35766c-0.23505-0.00822-0.46752,0.02213-0.71266-0.00822
        c0.27859-0.20471,0.5863-0.38664,0.92811-0.33107c0.43853,0.07078,0.89848,0.08844,1.28389,0.38671
        C22.17778,19.31491,22.39445,19.31303,22.60421,19.36796z" id="Combined-Shape" fill="#EEEEEE" fill-rule="nonzero"><animateTransform attributeName="transform" type="rotate" from="360 67 50" to="0 67 50" dur="9s" repeatCount="indefinite" /></path>
    </g>

</svg>